<mxfile host="app.diagrams.net" modified="2021-04-10T16:56:16.937Z" agent="5.0 (Windows NT 10.0; WOW64) AppleWebKit/537.36 (KHTML, like Gecko) Chrome/70.0.3538.25 Safari/537.36 Core/1.70.3861.400 QQBrowser/10.7.4313.400" etag="dOs2mcmBgwo4KrVqo8_C" version="14.2.9" type="github">
  <diagram id="C5RBs43oDa-KdzZeNtuy" name="Page-1">
    <mxGraphModel dx="952" dy="512" grid="1" gridSize="10" guides="1" tooltips="1" connect="1" arrows="1" fold="1" page="1" pageScale="1" pageWidth="827" pageHeight="1169" math="0" shadow="0">
      <root>
        <mxCell id="WIyWlLk6GJQsqaUBKTNV-0" />
        <mxCell id="WIyWlLk6GJQsqaUBKTNV-1" parent="WIyWlLk6GJQsqaUBKTNV-0" />
        <mxCell id="WIyWlLk6GJQsqaUBKTNV-2" value="" style="rounded=0;html=1;jettySize=auto;orthogonalLoop=1;fontSize=11;endArrow=block;endFill=0;endSize=8;strokeWidth=1;shadow=0;labelBackgroundColor=none;edgeStyle=orthogonalEdgeStyle;entryX=0.5;entryY=0;entryDx=0;entryDy=0;" parent="WIyWlLk6GJQsqaUBKTNV-1" source="WIyWlLk6GJQsqaUBKTNV-3" target="eZrTtJDjDLhxm3W8zmqa-0" edge="1">
          <mxGeometry relative="1" as="geometry">
            <mxPoint x="220" y="170" as="targetPoint" />
          </mxGeometry>
        </mxCell>
        <mxCell id="WIyWlLk6GJQsqaUBKTNV-3" value="创建socket实例对象" style="rounded=1;whiteSpace=wrap;html=1;fontSize=12;glass=0;strokeWidth=1;shadow=0;" parent="WIyWlLk6GJQsqaUBKTNV-1" vertex="1">
          <mxGeometry x="160" y="80" width="120" height="40" as="geometry" />
        </mxCell>
        <mxCell id="eZrTtJDjDLhxm3W8zmqa-0" value="绑定地址和端口&lt;br&gt;socket.bind()" style="rounded=1;whiteSpace=wrap;html=1;fontSize=12;glass=0;strokeWidth=1;shadow=0;" vertex="1" parent="WIyWlLk6GJQsqaUBKTNV-1">
          <mxGeometry x="160" y="150" width="120" height="40" as="geometry" />
        </mxCell>
        <mxCell id="eZrTtJDjDLhxm3W8zmqa-7" style="edgeStyle=orthogonalEdgeStyle;rounded=0;orthogonalLoop=1;jettySize=auto;html=1;exitX=0.5;exitY=1;exitDx=0;exitDy=0;fontFamily=Verdana;" edge="1" parent="WIyWlLk6GJQsqaUBKTNV-1" source="eZrTtJDjDLhxm3W8zmqa-1" target="eZrTtJDjDLhxm3W8zmqa-6">
          <mxGeometry relative="1" as="geometry" />
        </mxCell>
        <mxCell id="eZrTtJDjDLhxm3W8zmqa-1" value="监听&lt;br&gt;socket.listen" style="rounded=1;whiteSpace=wrap;html=1;" vertex="1" parent="WIyWlLk6GJQsqaUBKTNV-1">
          <mxGeometry x="160" y="220" width="120" height="40" as="geometry" />
        </mxCell>
        <mxCell id="eZrTtJDjDLhxm3W8zmqa-2" value="&lt;br&gt;" style="rounded=0;jettySize=auto;orthogonalLoop=1;fontSize=11;endArrow=block;endFill=0;endSize=8;strokeWidth=1;shadow=0;labelBackgroundColor=none;edgeStyle=orthogonalEdgeStyle;exitX=0.5;exitY=1;exitDx=0;exitDy=0;entryX=0.5;entryY=0;entryDx=0;entryDy=0;fontFamily=Verdana;labelPosition=center;verticalLabelPosition=middle;align=center;verticalAlign=middle;html=1;fontStyle=1" edge="1" parent="WIyWlLk6GJQsqaUBKTNV-1" source="eZrTtJDjDLhxm3W8zmqa-0" target="eZrTtJDjDLhxm3W8zmqa-1">
          <mxGeometry x="-0.3333" y="20" relative="1" as="geometry">
            <mxPoint as="offset" />
            <mxPoint x="230" y="200.0000000000001" as="sourcePoint" />
            <mxPoint x="230" y="240.00000000000023" as="targetPoint" />
          </mxGeometry>
        </mxCell>
        <mxCell id="eZrTtJDjDLhxm3W8zmqa-11" value="" style="edgeStyle=orthogonalEdgeStyle;rounded=0;orthogonalLoop=1;jettySize=auto;html=1;fontFamily=Verdana;" edge="1" parent="WIyWlLk6GJQsqaUBKTNV-1" source="eZrTtJDjDLhxm3W8zmqa-6" target="eZrTtJDjDLhxm3W8zmqa-8">
          <mxGeometry relative="1" as="geometry" />
        </mxCell>
        <mxCell id="eZrTtJDjDLhxm3W8zmqa-14" value="" style="edgeStyle=orthogonalEdgeStyle;rounded=0;orthogonalLoop=1;jettySize=auto;html=1;fontFamily=Verdana;" edge="1" parent="WIyWlLk6GJQsqaUBKTNV-1" source="eZrTtJDjDLhxm3W8zmqa-6" target="eZrTtJDjDLhxm3W8zmqa-13">
          <mxGeometry relative="1" as="geometry" />
        </mxCell>
        <mxCell id="eZrTtJDjDLhxm3W8zmqa-6" value="持续等待连接&lt;br&gt;&lt;span style=&quot;font-family: &amp;#34;helvetica&amp;#34;&quot;&gt;socket.accept&lt;/span&gt;" style="rounded=1;whiteSpace=wrap;html=1;fontFamily=Verdana;" vertex="1" parent="WIyWlLk6GJQsqaUBKTNV-1">
          <mxGeometry x="160" y="280" width="120" height="40" as="geometry" />
        </mxCell>
        <mxCell id="eZrTtJDjDLhxm3W8zmqa-10" value="" style="edgeStyle=orthogonalEdgeStyle;rounded=0;orthogonalLoop=1;jettySize=auto;html=1;fontFamily=Verdana;" edge="1" parent="WIyWlLk6GJQsqaUBKTNV-1" source="eZrTtJDjDLhxm3W8zmqa-8" target="eZrTtJDjDLhxm3W8zmqa-9">
          <mxGeometry relative="1" as="geometry" />
        </mxCell>
        <mxCell id="eZrTtJDjDLhxm3W8zmqa-8" value="echo处理函数" style="rounded=1;whiteSpace=wrap;html=1;fontFamily=Verdana;" vertex="1" parent="WIyWlLk6GJQsqaUBKTNV-1">
          <mxGeometry x="340" y="280" width="120" height="40" as="geometry" />
        </mxCell>
        <mxCell id="eZrTtJDjDLhxm3W8zmqa-9" value="持续接收客户端数据与发送数据" style="rounded=1;whiteSpace=wrap;html=1;fontFamily=Verdana;" vertex="1" parent="WIyWlLk6GJQsqaUBKTNV-1">
          <mxGeometry x="340" y="390" width="120" height="40" as="geometry" />
        </mxCell>
        <mxCell id="eZrTtJDjDLhxm3W8zmqa-13" value="创建多进程，将echo处理设为目标函数" style="rounded=1;whiteSpace=wrap;html=1;fontFamily=Verdana;" vertex="1" parent="WIyWlLk6GJQsqaUBKTNV-1">
          <mxGeometry x="160" y="340" width="120" height="40" as="geometry" />
        </mxCell>
      </root>
    </mxGraphModel>
  </diagram>
</mxfile>
